<?xml version="1.0" encoding="utf-8"?>
<!-- Generator: Adobe Illustrator 22.1.0, SVG Export Plug-In . SVG Version: 6.00 Build 0)  -->
<svg version="1.1" id="Layer_1" xmlns="http://www.w3.org/2000/svg" xmlns:xlink="http://www.w3.org/1999/xlink" x="0px" y="0px"
	 viewBox="0 0 241.7 269.3" style="enable-background:new 0 0 241.7 269.3;" xml:space="preserve">
<style type="text/css">
	.st0{fill:url(#SVGID_1_);}
	.st1{fill:#FFFFFF;}
</style>
<linearGradient id="SVGID_1_" gradientUnits="userSpaceOnUse" x1="0.3333" y1="148.6666" x2="241.6666" y2="148.6666">
	<stop  offset="0" style="stop-color:#0C3DEF"/>
	<stop  offset="0.1267" style="stop-color:#0C3AE6"/>
	<stop  offset="0.3374" style="stop-color:#0A31CC"/>
	<stop  offset="0.6061" style="stop-color:#0822A3"/>
	<stop  offset="0.9194" style="stop-color:#060E6A"/>
	<stop  offset="0.9944" style="stop-color:#05095B"/>
</linearGradient>
<circle class="st0" cx="121" cy="148.7" r="120.7"/>
<path class="st1" d="M117.3,97.2c0,0,1.3-33.4-24.4-32.2c0,0-87.7,9-76.7,100.6c0,0,16.2,86.4,110.3,65.2c0,0-18.8-54.4-4.6-80.2
	c0,0,16.7-14,47.3-1c0,0,5.3,49.1-9.2,83.2c0,0,32.6,8,33.1-12.3l1.7-143.9c0,0,4.1-13.5-29.1-11.4c0,0,28.6,60.4-43.1,61.3
	c0,0-27.3-3.5-28.5,34.5l-1.2,37.3c0,0,2.2,10-13.3,6.8c0,0-35.2-8.4-37.3-54.4C42.2,150.7,43.1,78.8,117.3,97.2z"/>
</svg>
